<svg id="Calque_1" data-name="Calque 1" xmlns="http://www.w3.org/2000/svg" viewBox="0 0 122.79 34.33"><defs><style>.cls-1,.cls-2{fill:#c2e6fb;stroke:#c2e6fb;stroke-width:0.5px;}.cls-1{stroke-miterlimit:10;}</style></defs><path class="cls-1" d="M13.72,50.93h25.6V54.3H13.72l0,26.57h-3.5l0-26.57h-7V50.93H13.72Z" transform="translate(-2.92 -46.79)"/><path class="cls-2" d="M18.75,75.4c0-2.91,2.31-5.25,8.21-6l4.5-.53c.9-.11,1.48-.62,1.48-1.41,0-2.27-2.16-3.74-5.33-3.74-3.42,0-5.83,2.19-6,4.35l-2.48-1c.32-3,3.85-5.8,8.57-5.8s7.92,2.6,7.92,6.66V80.15H33.15l-.28-3h0a7.75,7.75,0,0,1-7.06,3.74C21.63,80.87,18.75,78.64,18.75,75.4Zm14.12-3v-1.3l-5.62.69c-4.39.53-5.76,1.94-5.76,3.59,0,1.84,2,3,4.75,3C30.06,78.39,32.87,75.91,32.87,72.38Z" transform="translate(-2.92 -46.79)"/><path class="cls-2" d="M43.92,47h3.5V68.12h0l9.85-10.49H62l-8.79,9.16,9.57,14.08H58.51L50.78,69.32l-3.36,3.5v8.05h-3.5Z" transform="translate(-2.92 -46.79)"/><path class="cls-2" d="M64.86,75.4c0-2.91,2.3-5.25,8.21-6l4.5-.53c.9-.11,1.47-.62,1.47-1.41,0-2.27-2.16-3.74-5.32-3.74-3.42,0-5.84,2.19-6,4.35l-2.48-1c.32-3,3.85-5.8,8.56-5.8s7.92,2.6,7.92,6.66V80.15H79.26l-.29-3h0a7.76,7.76,0,0,1-7.06,3.74C67.74,80.87,64.86,78.64,64.86,75.4Zm14.11-3v-1.3l-5.61.69c-4.4.53-5.76,1.94-5.76,3.59,0,1.84,2,3,4.75,3C76.16,78.39,79,75.91,79,72.38Z" transform="translate(-2.92 -46.79)"/><path class="cls-2" d="M102.34,63.67c0-5.94,3.85-9.83,9.68-9.83s9.72,3.89,9.72,9.83-3.85,9.79-9.72,9.79S102.34,69.57,102.34,63.67Zm16.63,0c0-4.43-2.74-7.31-7-7.31s-6.94,2.88-6.94,7.31S107.81,71,112,71,119,68.1,119,63.67Z" transform="translate(-2.92 -46.79)"/><path class="cls-1" d="M97.92,80.87h27.54V77.5H97.92l0-26.57h-3.5l0,26.57H87.36v3.37H97.92Z" transform="translate(-2.92 -46.79)"/></svg>